<svg width="137" height="40" viewBox="0 0 137 40" fill="none" xmlns="http://www.w3.org/2000/svg">
<g id="ES">
<path id="Shape-path" fill-rule="evenodd" clip-rule="evenodd" d="M25.5818 17.6577L19.4148 23.9559C19.2372 24.1374 18.8863 24.2858 18.635 24.2858H18.1023C17.851 24.2858 17.5001 24.1369 17.3227 23.9559L14.4186 20.983C14.2412 20.8015 14.2415 20.5047 14.4194 20.3237L15.5623 19.1591C15.7401 18.9776 16.031 18.9776 16.2091 19.1586L18.0645 21.0452C18.2426 21.2264 18.5335 21.2262 18.7111 21.0447L23.7964 15.8509C23.974 15.6696 24.2651 15.6686 24.4435 15.8491L25.5803 16.9995C25.7584 17.1803 25.7591 17.4759 25.5818 17.6577Z" fill="#241C15" fill-opacity="0.65"/>
<g id="Group">
<path id="Shape" d="M20 0L20.648 2.09709H22.7451L21.0486 3.39311L21.6965 5.4902L20 4.19335L18.3039 5.4902L18.9519 3.39311L17.2549 2.09709H19.352L20 0Z" fill="#241C15" fill-opacity="0.3"/>
<path id="Shape_2" d="M20 34.5098L20.648 36.6075H22.7451L21.0486 37.9033L21.6965 40L20 38.7043L18.3039 40L18.9519 37.9033L17.2549 36.6075H19.352L20 34.5098Z" fill="#241C15" fill-opacity="0.3"/>
<path id="Shape_3" d="M28.6274 3.13733L29.2751 5.23439H31.3725L29.6757 6.53093L30.3238 8.62753L28.6274 7.33098L26.9307 8.62753L27.5787 6.53093L25.8823 5.23439H27.9797L28.6274 3.13733Z" fill="#241C15" fill-opacity="0.3"/>
<path id="Shape_4" d="M35.6026 25.7142L36.2502 27.812H38.3474L36.6507 29.1079L37.2992 31.2044L35.6026 29.909L33.9058 31.2044L34.5539 29.1079L32.8572 27.812H34.9545L35.6026 25.7142Z" fill="#241C15" fill-opacity="0.3"/>
<path id="Shape_5" d="M37.255 17.2549L37.9027 19.3518H40L38.3033 20.6477L38.9513 22.7451L37.255 21.4496L35.5584 22.7451L36.2068 20.6477L34.5098 19.3518H36.6066L37.255 17.2549Z" fill="#241C15" fill-opacity="0.3"/>
<path id="Shape_6" d="M2.74549 17.2549L3.39319 19.3518H5.4902L3.79343 20.6477L4.44192 22.7451L2.74549 21.4496L1.04861 22.7451L1.69676 20.6477L0 19.3518H2.09734L2.74549 17.2549Z" fill="#241C15" fill-opacity="0.3"/>
<path id="Shape_7" d="M4.17408 25.7142L4.82178 27.812H6.91879L5.22247 29.1079L5.87006 31.2044L4.17408 29.909L2.47732 31.2044L3.12535 29.1079L1.42859 27.812H3.52604L4.17408 25.7142Z" fill="#241C15" fill-opacity="0.3"/>
<path id="Shape_8" d="M35.6026 8.57141L36.2502 10.6692H38.3474L36.6507 11.9651L37.2992 14.0616L35.6026 12.7661L33.9058 14.0616L34.5539 11.9651L32.8572 10.6692H34.9545L35.6026 8.57141Z" fill="#241C15" fill-opacity="0.3"/>
<path id="Shape_9" d="M4.88831 8.57141L5.53601 10.6692H7.63302L5.9367 11.9651L6.58429 14.0616L4.88831 12.7661L3.19155 14.0616L3.83959 11.9651L2.14282 10.6692H4.24028L4.88831 8.57141Z" fill="#241C15" fill-opacity="0.3"/>
<path id="Shape_10" d="M30.1963 32.9412L30.844 35.0379H32.9412L31.2442 36.3346L31.8926 38.4314L30.1963 37.1355L28.4992 38.4314L29.1478 36.3346L27.451 35.0379H29.5483L30.1963 32.9412Z" fill="#241C15" fill-opacity="0.3"/>
<path id="Shape_11" d="M11.3726 3.13733L12.0202 5.23439H14.1176L12.4209 6.53093L13.0694 8.62753L11.3726 7.33098L9.67617 8.62753L10.3242 6.53093L8.62744 5.23439H10.7244L11.3726 3.13733Z" fill="#241C15" fill-opacity="0.3"/>
<path id="Shape_12" d="M9.80377 32.9412L10.4518 35.039H12.549L10.8524 36.3345L11.5004 38.4314L9.80377 37.1363L8.10748 38.4314L8.75546 36.3345L7.05884 35.039H9.15567L9.80377 32.9412Z" fill="#241C15" fill-opacity="0.3"/>
</g>
<g id="Group 369975">
<path id="Ready" d="M54.17 39V26.13H59.426C62.972 26.13 64.808 27.552 64.808 30.306V30.378C64.808 32.16 63.908 33.168 62.63 33.744L65.564 39H61.28L58.886 34.59H58.238V39H54.17ZM58.238 31.962H59.192C60.326 31.962 60.866 31.494 60.866 30.558V30.486C60.866 29.55 60.308 29.19 59.21 29.19H58.238V31.962ZM73.2152 39.234C68.7692 39.234 66.3752 36.516 66.3752 32.646V32.502C66.3752 28.56 69.3092 25.932 73.2152 25.932C76.3472 25.932 79.1192 27.354 79.3352 30.792H75.3032C75.1592 29.73 74.4932 29.136 73.2332 29.136C71.6132 29.136 70.6232 30.396 70.6232 32.574V32.718C70.6232 34.608 71.2532 36.138 73.3412 36.138C74.9612 36.138 75.5732 35.346 75.6632 34.5H73.4672V31.818H79.6412V33.474C79.6412 36.678 77.5352 39.234 73.2152 39.234ZM81.5832 39V26.13H86.7132C90.4212 26.13 92.0052 27.786 92.0052 30.54V30.612C92.0052 33.294 90.2232 34.806 86.8932 34.806H85.6512V39H81.5832ZM85.6512 32.07H86.4972C87.5772 32.07 88.1352 31.584 88.1352 30.63V30.558C88.1352 29.568 87.5772 29.172 86.5152 29.172H85.6512V32.07ZM97.9081 35.868H98.5921C100.59 35.868 101.436 34.878 101.436 32.628V32.484C101.436 30.126 100.554 29.262 98.5741 29.262H97.9081V35.868ZM93.8221 39V26.13H98.7361C103.344 26.13 105.684 28.326 105.684 32.412V32.538C105.684 36.642 103.272 39 98.7361 39H93.8221Z" fill="#241C15" fill-opacity="0.65"/>
<path id="Ready_2" d="M53.69 1.86V9H55.26V5.92H58.15V9H59.72V1.86H58.15V4.6H55.26V1.86H53.69ZM61.3878 1.86V9H66.8078V7.68H62.9578V5.93H66.4178V4.71H62.9578V3.18H66.7278V1.86H61.3878ZM69.7279 5.09V3.08H71.4479C71.8079 3.08 72.0779 3.16 72.2579 3.32C72.4379 3.47333 72.5279 3.72333 72.5279 4.07C72.5279 4.43 72.4379 4.69 72.2579 4.85C72.0779 5.01 71.8079 5.09 71.4479 5.09H69.7279ZM68.1579 1.86V9H69.7279V6.21H71.2979C71.6912 6.21 71.9746 6.29667 72.1479 6.47C72.3212 6.64333 72.4346 6.91667 72.4879 7.29C72.5279 7.57667 72.5579 7.87667 72.5779 8.19C72.5979 8.50333 72.6512 8.77333 72.7379 9H74.3079C74.2346 8.9 74.1779 8.78 74.1379 8.64C74.1046 8.49333 74.0779 8.34 74.0579 8.18C74.0446 8.02 74.0346 7.86333 74.0279 7.71C74.0212 7.55667 74.0146 7.42333 74.0079 7.31C73.9946 7.13 73.9679 6.95 73.9279 6.77C73.8946 6.59 73.8379 6.42667 73.7579 6.28C73.6779 6.12667 73.5746 5.99667 73.4479 5.89C73.3212 5.77667 73.1612 5.69333 72.9679 5.64V5.62C73.3679 5.46 73.6546 5.22667 73.8279 4.92C74.0079 4.61333 74.0979 4.25 74.0979 3.83C74.0979 3.55667 74.0479 3.30333 73.9479 3.07C73.8546 2.83 73.7146 2.62 73.5279 2.44C73.3479 2.26 73.1279 2.12 72.8679 2.02C72.6146 1.91333 72.3279 1.86 72.0079 1.86H68.1579ZM77.2304 5.09V3.08H78.9504C79.3104 3.08 79.5804 3.16 79.7604 3.32C79.9404 3.47333 80.0304 3.72333 80.0304 4.07C80.0304 4.43 79.9404 4.69 79.7604 4.85C79.5804 5.01 79.3104 5.09 78.9504 5.09H77.2304ZM75.6604 1.86V9H77.2304V6.21H78.8004C79.1938 6.21 79.4771 6.29667 79.6504 6.47C79.8238 6.64333 79.9371 6.91667 79.9904 7.29C80.0304 7.57667 80.0604 7.87667 80.0804 8.19C80.1004 8.50333 80.1538 8.77333 80.2404 9H81.8104C81.7371 8.9 81.6804 8.78 81.6404 8.64C81.6071 8.49333 81.5804 8.34 81.5604 8.18C81.5471 8.02 81.5371 7.86333 81.5304 7.71C81.5238 7.55667 81.5171 7.42333 81.5104 7.31C81.4971 7.13 81.4704 6.95 81.4304 6.77C81.3971 6.59 81.3404 6.42667 81.2604 6.28C81.1804 6.12667 81.0771 5.99667 80.9504 5.89C80.8238 5.77667 80.6638 5.69333 80.4704 5.64V5.62C80.8704 5.46 81.1571 5.22667 81.3304 4.92C81.5104 4.61333 81.6004 4.25 81.6004 3.83C81.6004 3.55667 81.5504 3.30333 81.4504 3.07C81.3571 2.83 81.2171 2.62 81.0304 2.44C80.8504 2.26 80.6304 2.12 80.3704 2.02C80.1171 1.91333 79.8304 1.86 79.5104 1.86H75.6604ZM84.9629 6.24L85.8929 3.62H85.9129L86.8129 6.24H84.9629ZM85.1129 1.86L82.4129 9H83.9929L84.5529 7.41H87.2229L87.7629 9H89.3929L86.7229 1.86H85.1129ZM90.2944 1.86V9H91.7644V3.99H91.7844L93.5344 9H94.7444L96.4944 3.94H96.5144V9H97.9844V1.86H95.7744L94.1944 6.77H94.1744L92.5044 1.86H90.2944ZM99.6523 1.86V9H101.222V1.86H99.6523ZM102.887 1.86V9H108.307V7.68H104.457V5.93H107.917V4.71H104.457V3.18H108.227V1.86H102.887ZM109.657 1.86V9H111.127V4.22H111.147L114.117 9H115.687V1.86H114.217V6.65H114.197L111.217 1.86H109.657ZM118.935 3.18V9H120.505V3.18H122.645V1.86H116.795V3.18H118.935ZM124.636 6.24L125.566 3.62H125.586L126.486 6.24H124.636ZM124.786 1.86L122.086 9H123.666L124.226 7.41H126.896L127.436 9H129.066L126.396 1.86H124.786ZM131.038 6.63H129.518C129.511 7.07 129.591 7.45 129.758 7.77C129.924 8.09 130.148 8.35333 130.428 8.56C130.714 8.76667 131.041 8.91667 131.408 9.01C131.781 9.11 132.164 9.16 132.558 9.16C133.044 9.16 133.471 9.10333 133.838 8.99C134.211 8.87667 134.521 8.72 134.768 8.52C135.021 8.31333 135.211 8.07 135.338 7.79C135.464 7.51 135.528 7.20667 135.528 6.88C135.528 6.48 135.441 6.15333 135.268 5.9C135.101 5.64 134.901 5.43333 134.668 5.28C134.434 5.12667 134.198 5.01667 133.958 4.95C133.724 4.87667 133.541 4.82667 133.408 4.8C132.961 4.68667 132.598 4.59333 132.318 4.52C132.044 4.44667 131.828 4.37333 131.668 4.3C131.514 4.22667 131.411 4.14667 131.358 4.06C131.304 3.97333 131.278 3.86 131.278 3.72C131.278 3.56667 131.311 3.44 131.378 3.34C131.444 3.24 131.528 3.15667 131.628 3.09C131.734 3.02333 131.851 2.97667 131.978 2.95C132.104 2.92333 132.231 2.91 132.358 2.91C132.551 2.91 132.728 2.92667 132.888 2.96C133.054 2.99333 133.201 3.05 133.328 3.13C133.454 3.21 133.554 3.32 133.628 3.46C133.708 3.6 133.754 3.77667 133.768 3.99H135.288C135.288 3.57667 135.208 3.22667 135.048 2.94C134.894 2.64667 134.684 2.40667 134.418 2.22C134.151 2.03333 133.844 1.9 133.498 1.82C133.158 1.73333 132.801 1.69 132.428 1.69C132.108 1.69 131.788 1.73333 131.468 1.82C131.148 1.90667 130.861 2.04 130.608 2.22C130.354 2.4 130.148 2.62667 129.988 2.9C129.834 3.16667 129.758 3.48333 129.758 3.85C129.758 4.17667 129.818 4.45667 129.938 4.69C130.064 4.91667 130.228 5.10667 130.428 5.26C130.628 5.41333 130.854 5.54 131.108 5.64C131.361 5.73333 131.621 5.81333 131.888 5.88C132.148 5.95333 132.404 6.02 132.658 6.08C132.911 6.14 133.138 6.21 133.338 6.29C133.538 6.37 133.698 6.47 133.818 6.59C133.944 6.71 134.008 6.86667 134.008 7.06C134.008 7.24 133.961 7.39 133.868 7.51C133.774 7.62333 133.658 7.71333 133.518 7.78C133.378 7.84667 133.228 7.89333 133.068 7.92C132.908 7.94 132.758 7.95 132.618 7.95C132.411 7.95 132.211 7.92667 132.018 7.88C131.824 7.82667 131.654 7.75 131.508 7.65C131.368 7.54333 131.254 7.40667 131.168 7.24C131.081 7.07333 131.038 6.87 131.038 6.63Z" fill="#241C15" fill-opacity="0.65"/>
<path id="Ready_3" d="M58.45 15.26H59.97C59.9233 14.8467 59.81 14.48 59.63 14.16C59.45 13.84 59.22 13.5733 58.94 13.36C58.6667 13.14 58.3533 12.9733 58 12.86C57.6533 12.7467 57.2833 12.69 56.89 12.69C56.3433 12.69 55.85 12.7867 55.41 12.98C54.9767 13.1733 54.61 13.44 54.31 13.78C54.01 14.12 53.78 14.52 53.62 14.98C53.46 15.4333 53.38 15.9267 53.38 16.46C53.38 16.98 53.46 17.4667 53.62 17.92C53.78 18.3667 54.01 18.7567 54.31 19.09C54.61 19.4233 54.9767 19.6867 55.41 19.88C55.85 20.0667 56.3433 20.16 56.89 20.16C57.33 20.16 57.7333 20.0933 58.1 19.96C58.4667 19.8267 58.7867 19.6333 59.06 19.38C59.3333 19.1267 59.5533 18.82 59.72 18.46C59.8867 18.1 59.99 17.6967 60.03 17.25H58.51C58.45 17.73 58.2833 18.1167 58.01 18.41C57.7433 18.7033 57.37 18.85 56.89 18.85C56.5367 18.85 56.2367 18.7833 55.99 18.65C55.7433 18.51 55.5433 18.3267 55.39 18.1C55.2367 17.8733 55.1233 17.62 55.05 17.34C54.9833 17.0533 54.95 16.76 54.95 16.46C54.95 16.1467 54.9833 15.8433 55.05 15.55C55.1233 15.2567 55.2367 14.9967 55.39 14.77C55.5433 14.5367 55.7433 14.3533 55.99 14.22C56.2367 14.08 56.5367 14.01 56.89 14.01C57.0833 14.01 57.2667 14.0433 57.44 14.11C57.62 14.17 57.78 14.2567 57.92 14.37C58.06 14.4833 58.1767 14.6167 58.27 14.77C58.3633 14.9167 58.4233 15.08 58.45 15.26ZM62.6478 16.46C62.6478 16.1467 62.6812 15.8433 62.7478 15.55C62.8212 15.2567 62.9345 14.9967 63.0878 14.77C63.2412 14.5367 63.4412 14.3533 63.6878 14.22C63.9345 14.08 64.2345 14.01 64.5878 14.01C64.9412 14.01 65.2412 14.08 65.4878 14.22C65.7345 14.3533 65.9345 14.5367 66.0878 14.77C66.2412 14.9967 66.3512 15.2567 66.4178 15.55C66.4912 15.8433 66.5278 16.1467 66.5278 16.46C66.5278 16.76 66.4912 17.0533 66.4178 17.34C66.3512 17.62 66.2412 17.8733 66.0878 18.1C65.9345 18.3267 65.7345 18.51 65.4878 18.65C65.2412 18.7833 64.9412 18.85 64.5878 18.85C64.2345 18.85 63.9345 18.7833 63.6878 18.65C63.4412 18.51 63.2412 18.3267 63.0878 18.1C62.9345 17.8733 62.8212 17.62 62.7478 17.34C62.6812 17.0533 62.6478 16.76 62.6478 16.46ZM61.0778 16.46C61.0778 16.98 61.1578 17.4667 61.3178 17.92C61.4778 18.3667 61.7078 18.7567 62.0078 19.09C62.3078 19.4233 62.6745 19.6867 63.1078 19.88C63.5478 20.0667 64.0412 20.16 64.5878 20.16C65.1412 20.16 65.6345 20.0667 66.0678 19.88C66.5012 19.6867 66.8678 19.4233 67.1678 19.09C67.4678 18.7567 67.6978 18.3667 67.8578 17.92C68.0178 17.4667 68.0978 16.98 68.0978 16.46C68.0978 15.9267 68.0178 15.4333 67.8578 14.98C67.6978 14.52 67.4678 14.12 67.1678 13.78C66.8678 13.44 66.5012 13.1733 66.0678 12.98C65.6345 12.7867 65.1412 12.69 64.5878 12.69C64.0412 12.69 63.5478 12.7867 63.1078 12.98C62.6745 13.1733 62.3078 13.44 62.0078 13.78C61.7078 14.12 61.4778 14.52 61.3178 14.98C61.1578 15.4333 61.0778 15.9267 61.0778 16.46ZM69.4567 12.86V20H70.9267V14.99H70.9467L72.6967 20H73.9067L75.6567 14.94H75.6767V20H77.1467V12.86H74.9367L73.3567 17.77H73.3367L71.6667 12.86H69.4567ZM80.3847 16.22V14.08H81.6047C81.7847 14.08 81.9581 14.0933 82.1247 14.12C82.2914 14.1467 82.4381 14.2 82.5647 14.28C82.6914 14.3533 82.7914 14.46 82.8647 14.6C82.9447 14.74 82.9847 14.9233 82.9847 15.15C82.9847 15.3767 82.9447 15.56 82.8647 15.7C82.7914 15.84 82.6914 15.95 82.5647 16.03C82.4381 16.1033 82.2914 16.1533 82.1247 16.18C81.9581 16.2067 81.7847 16.22 81.6047 16.22H80.3847ZM78.8147 12.86V20H80.3847V17.44H82.0347C82.4814 17.44 82.8614 17.3767 83.1747 17.25C83.4881 17.1167 83.7414 16.9433 83.9347 16.73C84.1347 16.5167 84.2781 16.2733 84.3647 16C84.4581 15.72 84.5047 15.4367 84.5047 15.15C84.5047 14.8567 84.4581 14.5733 84.3647 14.3C84.2781 14.0267 84.1347 13.7833 83.9347 13.57C83.7414 13.3567 83.4881 13.1867 83.1747 13.06C82.8614 12.9267 82.4814 12.86 82.0347 12.86H78.8147ZM86.8282 17.24L87.7582 14.62H87.7782L88.6782 17.24H86.8282ZM86.9782 12.86L84.2782 20H85.8582L86.4182 18.41H89.0882L89.6282 20H91.2582L88.5882 12.86H86.9782ZM92.8216 14.18V20H94.3916V14.18H96.5316V12.86H90.6816V14.18H92.8216ZM97.6406 12.86V20H99.2106V12.86H97.6406ZM102.446 15.75V14.08H103.916C104.056 14.08 104.189 14.0933 104.316 14.12C104.449 14.14 104.566 14.18 104.666 14.24C104.766 14.3 104.846 14.3833 104.906 14.49C104.966 14.5967 104.996 14.7333 104.996 14.9C104.996 15.2 104.906 15.4167 104.726 15.55C104.546 15.6833 104.316 15.75 104.036 15.75H102.446ZM100.876 12.86V20H104.336C104.656 20 104.966 19.96 105.266 19.88C105.572 19.8 105.842 19.6767 106.076 19.51C106.316 19.3433 106.506 19.13 106.646 18.87C106.786 18.6033 106.856 18.29 106.856 17.93C106.856 17.4833 106.746 17.1033 106.526 16.79C106.312 16.47 105.986 16.2467 105.546 16.12C105.866 15.9667 106.106 15.77 106.266 15.53C106.432 15.29 106.516 14.99 106.516 14.63C106.516 14.2967 106.459 14.0167 106.346 13.79C106.239 13.5633 106.086 13.3833 105.886 13.25C105.686 13.11 105.446 13.01 105.166 12.95C104.886 12.89 104.576 12.86 104.236 12.86H100.876ZM102.446 18.78V16.82H104.156C104.496 16.82 104.769 16.9 104.976 17.06C105.182 17.2133 105.286 17.4733 105.286 17.84C105.286 18.0267 105.252 18.18 105.186 18.3C105.126 18.42 105.042 18.5167 104.936 18.59C104.829 18.6567 104.706 18.7067 104.566 18.74C104.426 18.7667 104.279 18.78 104.126 18.78H102.446ZM108.202 12.86V20H113.252V18.68H109.772V12.86H108.202ZM114.416 12.86V20H119.836V18.68H115.986V16.93H119.446V15.71H115.986V14.18H119.756V12.86H114.416ZM122.256 17.63H120.736C120.729 18.07 120.809 18.45 120.976 18.77C121.142 19.09 121.366 19.3533 121.646 19.56C121.932 19.7667 122.259 19.9167 122.626 20.01C122.999 20.11 123.382 20.16 123.776 20.16C124.262 20.16 124.689 20.1033 125.056 19.99C125.429 19.8767 125.739 19.72 125.986 19.52C126.239 19.3133 126.429 19.07 126.556 18.79C126.682 18.51 126.746 18.2067 126.746 17.88C126.746 17.48 126.659 17.1533 126.486 16.9C126.319 16.64 126.119 16.4333 125.886 16.28C125.652 16.1267 125.416 16.0167 125.176 15.95C124.942 15.8767 124.759 15.8267 124.626 15.8C124.179 15.6867 123.816 15.5933 123.536 15.52C123.262 15.4467 123.046 15.3733 122.886 15.3C122.732 15.2267 122.629 15.1467 122.576 15.06C122.522 14.9733 122.496 14.86 122.496 14.72C122.496 14.5667 122.529 14.44 122.596 14.34C122.662 14.24 122.746 14.1567 122.846 14.09C122.952 14.0233 123.069 13.9767 123.196 13.95C123.322 13.9233 123.449 13.91 123.576 13.91C123.769 13.91 123.946 13.9267 124.106 13.96C124.272 13.9933 124.419 14.05 124.546 14.13C124.672 14.21 124.772 14.32 124.846 14.46C124.926 14.6 124.972 14.7767 124.986 14.99H126.506C126.506 14.5767 126.426 14.2267 126.266 13.94C126.112 13.6467 125.902 13.4067 125.636 13.22C125.369 13.0333 125.062 12.9 124.716 12.82C124.376 12.7333 124.019 12.69 123.646 12.69C123.326 12.69 123.006 12.7333 122.686 12.82C122.366 12.9067 122.079 13.04 121.826 13.22C121.572 13.4 121.366 13.6267 121.206 13.9C121.052 14.1667 120.976 14.4833 120.976 14.85C120.976 15.1767 121.036 15.4567 121.156 15.69C121.282 15.9167 121.446 16.1067 121.646 16.26C121.846 16.4133 122.072 16.54 122.326 16.64C122.579 16.7333 122.839 16.8133 123.106 16.88C123.366 16.9533 123.622 17.02 123.876 17.08C124.129 17.14 124.356 17.21 124.556 17.29C124.756 17.37 124.916 17.47 125.036 17.59C125.162 17.71 125.226 17.8667 125.226 18.06C125.226 18.24 125.179 18.39 125.086 18.51C124.992 18.6233 124.876 18.7133 124.736 18.78C124.596 18.8467 124.446 18.8933 124.286 18.92C124.126 18.94 123.976 18.95 123.836 18.95C123.629 18.95 123.429 18.9267 123.236 18.88C123.042 18.8267 122.872 18.75 122.726 18.65C122.586 18.5433 122.472 18.4067 122.386 18.24C122.299 18.0733 122.256 17.87 122.256 17.63Z" fill="#241C15" fill-opacity="0.65"/>
</g>
</g>
</svg>
